<?xml version="1.0" encoding="utf-8"?>
<!-- Generator: Adobe Illustrator 23.0.3, SVG Export Plug-In . SVG Version: 6.00 Build 0)  -->
<svg version="1.1" id="Capa_1" xmlns="http://www.w3.org/2000/svg" xmlns:xlink="http://www.w3.org/1999/xlink" x="0px" y="0px"
	 viewBox="0 0 512 512" style="enable-background:new 0 0 512 512;" xml:space="preserve">
<style type="text/css">
	.st0{fill:#AC3363;}
</style>
<g>
	<g>
		<path class="st0" d="M512,374.9c0-0.2,0-0.4,0-0.6c0-0.3,0-0.6-0.1-0.9c0,0,0-0.1,0-0.1l-26.7-213.7c-2.8-22.5-22-39.4-44.7-39.4
			H422V90h45c8.3,0,15-6.7,15-15V15c0-8.3-6.7-15-15-15H287c-8.3,0-15,6.7-15,15v60c0,8.3,6.7,15,15,15h45v30h-90V45
			c0-8.3-6.7-15-15-15h-90c-8.3,0-15,6.7-15,15v75H71.5c-22.6,0-41.8,16.9-44.7,39.4L0.1,373.1c0,0,0,0.1,0,0.1
			c0,0.3-0.1,0.6-0.1,0.9c0,0.2,0,0.4,0,0.6c0,0,0,0.1,0,0.1v92c0,24.8,20.2,45,45,45h422c24.8,0,45-20.2,45-45v-92
			C512,375,512,374.9,512,374.9z M302,60V30h150v30C437.3,60,316.9,60,302,60z M392,90v30h-30V90H392z M152,60h60v120h-60V60z
			 M56.6,163.1c0.9-7.5,7.3-13.1,14.9-13.1H122v30h-15c-8.3,0-15,6.7-15,15s6.7,15,15,15c6.1,0,143.7,0,150,0c8.3,0,15-6.7,15-15
			s-6.7-15-15-15h-15v-30h105h60h33.5c7.5,0,13.9,5.6,14.9,13.1L480,360H32L56.6,163.1z M482,467c0,8.3-6.7,15-15,15H45
			c-8.3,0-15-6.7-15-15v-77h452V467z"/>
	</g>
</g>
<g>
	<g>
		<path class="st0" d="M407,300h-90c-8.3,0-15,6.7-15,15s6.7,15,15,15h90c8.3,0,15-6.7,15-15S415.3,300,407,300z"/>
	</g>
</g>
<g>
	<g>
		<path class="st0" d="M146.9,300H105c-8.3,0-15,6.7-15,15s6.7,15,15,15h41.9c8.3,0,15-6.7,15-15S155.2,300,146.9,300z"/>
	</g>
</g>
<g>
	<g>
		<path class="st0" d="M146.9,240H105c-8.3,0-15,6.7-15,15s6.7,15,15,15h41.9c8.3,0,15-6.7,15-15S155.2,240,146.9,240z"/>
	</g>
</g>
<g>
	<g>
		<path class="st0" d="M257,240h-43.8c-8.3,0-15,6.7-15,15s6.7,15,15,15H257c8.3,0,15-6.7,15-15S265.3,240,257,240z"/>
	</g>
</g>
<g>
	<g>
		<path class="st0" d="M257,300h-41.7c-8.3,0-15,6.7-15,15s6.7,15,15,15H257c8.3,0,15-6.7,15-15S265.3,300,257,300z"/>
	</g>
</g>
<g>
	<g>
		<path class="st0" d="M407,180h-90c-8.3,0-15,6.7-15,15v60c0,8.3,6.7,15,15,15h90c8.3,0,15-6.7,15-15v-60
			C422,186.7,415.3,180,407,180z M392,240h-60v-30h60V240z"/>
	</g>
</g>
<g>
	<g>
		<path class="st0" d="M287,420h-60c-8.3,0-15,6.7-15,15s6.7,15,15,15h60c8.3,0,15-6.7,15-15S295.3,420,287,420z"/>
	</g>
</g>
</svg>
