<svg xmlns="http://www.w3.org/2000/svg" viewBox="0 0 127.56 24.25"><defs><style>.cls-1{fill:#ec663b;}.cls-2{fill:#676766;}.cls-3{fill:#cdcccc;}</style></defs><title>Risorsa 1Scritta</title><g id="Livello_2" data-name="Livello 2"><g id="Livello_1-2" data-name="Livello 1"><path class="cls-1" d="M0,6.6H4.25L8.89,19.28l3.24-8.78a6,6,0,0,1,5.58-3.9h0L10.66,24H7.09Z"/><path class="cls-2" d="M21.54,1H31.8a8.24,8.24,0,0,1,6,2A5.09,5.09,0,0,1,39.32,6.8v.06A5.44,5.44,0,0,1,36.05,12c2.68.92,4.54,2.45,4.54,5.56v.06c0,4.09-3.36,6.28-8.46,6.28H21.54ZM31,10.62c2.59,0,4.32-1,4.32-3.1V7.45c0-1.8-1.44-2.91-4-2.91H25.49v6.08Zm1.18,9.68c2.75,0,4.41-1.08,4.41-3.14v-.07c0-1.92-1.53-3.07-4.7-3.07H25.49V20.3Z"/><path class="cls-2" d="M55.23,23.86V21.74a7,7,0,0,1-5.59,2.48c-3.26,0-6.14-1.86-6.14-5.33v-.06c0-3.83,3-5.66,7-5.66a14.67,14.67,0,0,1,4.78.72v-.33c0-2.38-1.51-3.69-4.25-3.69A12.09,12.09,0,0,0,46.08,11L45,7.78a14.81,14.81,0,0,1,6.57-1.44c5.1,0,7.59,2.68,7.59,7.29V23.86Zm.1-7.22A11.1,11.1,0,0,0,51.38,16c-2.49,0-4,1-4,2.68v.07c0,1.63,1.47,2.54,3.34,2.54,2.61,0,4.57-1.47,4.57-3.62Z"/><path class="cls-2" d="M62.45,21.6l1.77-2.68a9.66,9.66,0,0,0,5.65,2.13c1.7,0,2.68-.72,2.68-1.86v-.07c0-1.34-1.83-1.8-3.85-2.42-2.55-.72-5.4-1.76-5.4-5.06v-.07c0-3.27,2.72-5.26,6.15-5.26a12,12,0,0,1,6.34,2l-1.57,2.81a10,10,0,0,0-4.87-1.63c-1.53,0-2.42.71-2.42,1.73v.06c0,1.25,1.87,1.77,3.89,2.42,2.52.79,5.36,1.93,5.36,5v.06c0,3.63-2.81,5.43-6.4,5.43A12.14,12.14,0,0,1,62.45,21.6Z"/><path class="cls-2" d="M80.2,0h4V14.25L91.31,6.6h4.81l-6.86,7,7.09,10.23H91.77l-5.2-7.45-2.41,2.51v4.94h-4Z"/><path class="cls-2" d="M97.46,15.3v-.07c0-4.93,3.49-9,8.43-9,5.49,0,8.27,4.32,8.27,9.28a11.21,11.21,0,0,1-.07,1.12H101.41a4.82,4.82,0,0,0,5,4.38A6.25,6.25,0,0,0,111.05,19L113.37,21a8.7,8.7,0,0,1-7.05,3.23A8.61,8.61,0,0,1,97.46,15.3ZM110.24,14c-.26-2.55-1.77-4.54-4.38-4.54-2.42,0-4.12,1.86-4.48,4.54Z"/><path class="cls-2" d="M119,19.09V10h-2.19V6.6H119V1.86h4V6.6h4.64V10h-4.64v8.47A1.88,1.88,0,0,0,125,20.62a5.32,5.32,0,0,0,2.45-.58v3.23a6.87,6.87,0,0,1-3.56.88C121,24.15,119,22.88,119,19.09Z"/><path class="cls-3" d="M8.89,19.28l3.24-8.78a6,6,0,0,1,5.58-3.9h0L10.66,24H7.09"/></g></g></svg>