<svg xmlns="http://www.w3.org/2000/svg" viewBox="0 0 276.09 67.06"><defs><style>.cls-1{fill:#cdcccc;}.cls-2{fill:#ec663b;}.cls-3{fill:#676766;}.cls-4{fill:#fff;}.cls-5{fill:#dc5d3b;}</style></defs><title>Risorsa 3vBasket</title><g id="Livello_2" data-name="Livello 2"><g id="Livello_1-2" data-name="Livello 1"><path class="cls-1" d="M35.48,19.4,40.44,6A9.11,9.11,0,0,1,49,0h0L38.18,26.6H32.73Z"/><path class="cls-2" d="M80.94,36.75h6.5l7.1,19.4,4.95-13.44a9.11,9.11,0,0,1,8.55-6h0l-10.8,26.6H91.79Z"/><path class="cls-3" d="M113.89,28.15h15.7c4,0,7.15,1.1,9.15,3.1a7.84,7.84,0,0,1,2.35,5.8v.1c0,4.2-2.4,6.45-5,7.8,4.1,1.4,6.95,3.75,6.95,8.5v.1c0,6.25-5.15,9.6-12.95,9.6h-16.2ZM128.34,42.9c3.95,0,6.6-1.55,6.6-4.75v-.1c0-2.75-2.2-4.45-6.15-4.45h-8.85v9.3Zm1.8,14.8c4.2,0,6.75-1.65,6.75-4.8v-.1c0-2.95-2.35-4.7-7.2-4.7h-9.75v9.6Z"/><path class="cls-3" d="M165.44,63.15V59.9a10.67,10.67,0,0,1-8.55,3.8c-5,0-9.4-2.85-9.4-8.15v-.1c0-5.85,4.55-8.65,10.7-8.65a22.22,22.22,0,0,1,7.3,1.1v-.5c0-3.65-2.3-5.65-6.5-5.65a18.38,18.38,0,0,0-7.55,1.65l-1.65-4.85a22.64,22.64,0,0,1,10.05-2.2c7.8,0,11.6,4.1,11.6,11.15V63.15Zm.15-11a17.28,17.28,0,0,0-6.05-1.05c-3.8,0-6,1.55-6,4.1v.1c0,2.5,2.25,3.9,5.1,3.9,4,0,7-2.25,7-5.55Z"/><path class="cls-3" d="M176.48,59.7l2.7-4.1a14.84,14.84,0,0,0,8.66,3.25c2.59,0,4.09-1.1,4.09-2.85v-.1c0-2-2.79-2.75-5.9-3.7-3.89-1.1-8.25-2.7-8.25-7.75v-.1c0-5,4.15-8.05,9.4-8.05a18.31,18.31,0,0,1,9.71,3l-2.4,4.3A15.35,15.35,0,0,0,187,41.1c-2.36,0-3.7,1.1-3.7,2.65v.1c0,1.9,2.84,2.7,5.95,3.7,3.85,1.2,8.2,3,8.2,7.7v.1c0,5.55-4.3,8.3-9.81,8.3A18.55,18.55,0,0,1,176.48,59.7Z"/><path class="cls-3" d="M203.63,26.65h6.05v21.8l11-11.7H228L217.49,47.5l10.85,15.65h-7l-8-11.4-3.71,3.85v7.55h-6.05Z"/><path class="cls-3" d="M230,50.05V50c0-7.55,5.35-13.75,12.9-13.75,8.41,0,12.66,6.6,12.66,14.2,0,.55-.05,1.1-.1,1.7H236.08a7.37,7.37,0,0,0,7.6,6.7,9.59,9.59,0,0,0,7.16-3.15l3.55,3.15a13.37,13.37,0,0,1-10.8,5C235.93,63.75,230,58.2,230,50.05Zm19.56-1.95c-.41-3.9-2.7-7-6.7-7-3.71,0-6.31,2.85-6.86,7Z"/><path class="cls-3" d="M262.93,55.85V42h-3.35v-5.2h3.35V29.5H269v7.25h7.11V42H269V54.9c0,2.35,1.2,3.3,3.25,3.3a8.14,8.14,0,0,0,3.76-.9v5a10.63,10.63,0,0,1-5.46,1.35C266.08,63.6,262.93,61.65,262.93,55.85Z"/><path class="cls-2" d="M1.22,29.18,3.85,64.8a2.44,2.44,0,0,0,2.43,2.26h58.3A2.45,2.45,0,0,0,67,64.8l2.62-35.62Z"/><polygon class="cls-4" points="69.37 32.85 69.64 29.18 1.22 29.18 1.49 32.85 69.37 32.85"/><path class="cls-5" d="M69.64,30.41H1.22A1.23,1.23,0,0,1,0,29.18V24.3a1.22,1.22,0,0,1,1.22-1.22H69.64a1.22,1.22,0,0,1,1.23,1.22v4.88A1.23,1.23,0,0,1,69.64,30.41Z"/><circle class="cls-4" cx="35.43" cy="26.74" r="1.83"/><path class="cls-4" d="M13.64,42.4a.77.77,0,0,0,.77-.77V39.34a1.52,1.52,0,0,1,1.53-1.53h2.29a.77.77,0,0,0,0-1.54H15.94a3.08,3.08,0,0,0-3.07,3.07v2.29A.77.77,0,0,0,13.64,42.4Z"/><path class="cls-4" d="M54.93,36.27h-2.3a.77.77,0,0,0,0,1.54h2.3a1.53,1.53,0,0,1,1.53,1.53v2.29a.77.77,0,1,0,1.53,0V39.34A3.07,3.07,0,0,0,54.93,36.27Z"/><path class="cls-4" d="M57.23,57.71a.76.76,0,0,0-.77.77v2.29a1.53,1.53,0,0,1-1.53,1.53h-2.3a.77.77,0,0,0-.76.77.76.76,0,0,0,.76.76h2.3A3.06,3.06,0,0,0,58,60.77V58.48A.76.76,0,0,0,57.23,57.71Z"/><path class="cls-4" d="M18.23,62.3H15.94a1.52,1.52,0,0,1-1.53-1.53V58.48a.77.77,0,0,0-1.54,0v2.29a3.07,3.07,0,0,0,3.07,3.06h2.29a.76.76,0,0,0,.77-.76A.77.77,0,0,0,18.23,62.3Z"/><path class="cls-4" d="M22.42,39.37a.77.77,0,0,0-.77.76V60a.77.77,0,0,0,.77.76.76.76,0,0,0,.76-.76V40.13A.76.76,0,0,0,22.42,39.37Z"/><path class="cls-4" d="M37.73,39.37a.77.77,0,0,0-.77.76V60a.77.77,0,0,0,1.54,0V40.13A.77.77,0,0,0,37.73,39.37Z"/><path class="cls-4" d="M48.45,39.37a.76.76,0,0,0-.77.76V60a.77.77,0,0,0,1.53,0V40.13A.76.76,0,0,0,48.45,39.37Z"/><path class="cls-4" d="M27,39.37a.76.76,0,0,0-.76.76V55.38a.77.77,0,1,0,1.53,0V40.13A.76.76,0,0,0,27,39.37Z"/><path class="cls-4" d="M30.07,39.37a.76.76,0,0,0-.76.76V55.38a.77.77,0,1,0,1.53,0V40.13A.76.76,0,0,0,30.07,39.37Z"/><path class="cls-4" d="M33.14,39.37a.76.76,0,0,0-.77.76V55.38a.77.77,0,1,0,1.53,0V40.13A.76.76,0,0,0,33.14,39.37Z"/><path class="cls-4" d="M40.79,39.37a.76.76,0,0,0-.76.76V55.38a.77.77,0,1,0,1.53,0V40.13A.76.76,0,0,0,40.79,39.37Z"/><path class="cls-4" d="M45.39,39.37a.76.76,0,0,0-.77.76V55.38a.77.77,0,1,0,1.53,0V40.13A.76.76,0,0,0,45.39,39.37Z"/><path class="cls-4" d="M45.39,57.68a.76.76,0,0,0-.77.76V60a.77.77,0,0,0,1.53,0V58.44A.76.76,0,0,0,45.39,57.68Z"/><path class="cls-4" d="M40.79,57.68a.76.76,0,0,0-.76.76V60a.77.77,0,0,0,1.53,0V58.44A.76.76,0,0,0,40.79,57.68Z"/><path class="cls-4" d="M33.14,57.68a.76.76,0,0,0-.77.76V60a.77.77,0,0,0,1.53,0V58.44A.76.76,0,0,0,33.14,57.68Z"/><path class="cls-4" d="M30.07,57.68a.76.76,0,0,0-.76.76V60a.77.77,0,0,0,1.53,0V58.44A.76.76,0,0,0,30.07,57.68Z"/><path class="cls-4" d="M27,57.68a.76.76,0,0,0-.76.76V60a.77.77,0,0,0,1.53,0V58.44A.76.76,0,0,0,27,57.68Z"/><path class="cls-1" d="M53,49.29H17.83a.77.77,0,1,0,0,1.53H53a.77.77,0,1,0,0-1.53Z"/><path class="cls-1" d="M94.54,56.15l4.95-13.44a9.11,9.11,0,0,1,8.55-6h0l-10.8,26.6H91.79"/></g></g></svg>